<?xml version="1.0" encoding="UTF-8"?>
<!-- Created with Inkscape (http://www.inkscape.org/) -->
<svg width="93.973mm" height="47.239mm" version="1.1" viewBox="0 0 93.973 47.239" xmlns="http://www.w3.org/2000/svg">
 <g transform="translate(166.77 -99.702)">
  <path transform="scale(.26458)" d="m-496.88 376.83c-2.0644-0.0158-4.0794 0.0457-6.0312 0.1582-22.742 1.1032-43.566 7.5086-60.516 14.387-22.801 9.0706-39.476 19.459-51.881 31.609-6.7696 6.5326-11.13 13.091-13.406 19.625-4.4006 12.647 1.5521 19.484 2.748 18.992 1.196-0.49141-1.0266-7.3827 3.9551-16.039 2.802-4.9614 7.0121-9.2766 13.729-14.572 12.611-9.7821 27.974-17.367 50.273-24.928 16.424-5.4346 35.91-10.527 55.658-10.725 6.8225 2e-3 13.53 0.31962 19.055 2.375 2.0452 0.76732 3.8283 1.5792 5.0352 2.6074 0.99277 0.8343 1.8133 1.7498 2.1523 2.6172 0.87156 1.2032 0.62852 3.7261 0.1836 6.6289v2e-3c-0.77303 3.8234-2.8111 7.8561-5.2383 12.348-4.4199 7.9653-9.954 15.564-15.875 23.932-1.873 2.6471-3.7442 5.3168-5.5918 8.0488-3.6155 5.3023-7.1761 10.852-10.281 16.947-2.6378 4.9377-4.9355 10.836-5.7812 17.713-0.7666 6.323 0.90919 13.007 5.1562 18.766 5.7939 6.6088 12.741 9.9447 18.775 11.396 17.085 4.9516 34.26 5.9911 49.402 5.9473 19.781 6e-3 38.422-1.9123 54.355-4.2539 19.539-2.8642 36.114-6.5421 49.094-10.074 21.322-5.7912 33.057-11.547 32.482-13.266-0.23311-0.69734-2.4678-0.70972-6.3809-0.3086 0.0977-0.286 0.19687-0.56991 0.29493-0.85547 4.8445 0.30849 9.7334 0.76907 15.125 1.2324 0.27896 0.024 0.55885 0.0466 0.83789 0.0703-2.8928 2.7303-6.1417 5.4834-9.1856 8.1133-10.08 8.6497-17.638 15.374-24.199 23.652-3.7656 4.6941-6.352 9.1558-7.8457 13.5-3.3047 8.952 0.69748 13.063 1.7285 12.889 1.6075-0.27239 2.4572-3.9089 6.2637-8.6328 2.3857-2.8424 4.9592-5.1088 9.2246-8.6387 8.6426-7.0461 13.406-9.7242 25.887-18.652 3.7069-2.6264 7.87-5.6464 11.951-9.1406 2.584-1.9688 5.9155-5.1104 8.8223-10.133 1.1622-1.6776 1.8723-4.5573 1.752-8.5742-0.78977-4.1375-2.5626-7.1965-5.0488-8.9785-6.5612-4.3344-12.417-5.345-16.037-5.0664-0.17774-0.0155-2.2617-0.19973-2.4395-0.21485-6.4446-0.55971-12.752-1.0368-19.246-1.1328-0.28752 0.56534-0.60749 1.1317-0.95508 1.6992-0.42087-0.048-0.8501-0.10002-1.2656-0.14648-12.294-1.3758-23.56-2.2637-32.844-2.7031-1.6402-5e-3 -3.746-0.32666-5.7969-0.58594-2.4184-0.30568-4.6459-0.57647-6.6875-0.83007-0.31153-0.0393-0.59351-0.0673-0.83789-0.0937-0.75939 0.82917-1.2196 1.8059-1.3809 2.8633-0.37674 0.55072-0.76548 1.1076-1.1758 1.6777 0.0829 0.59497 0.10498 1.1624 0.0625 1.7109-0.011 0.14373-0.0312 0.29293-0.0195 0.44336 0.0969 1.2433-0.0832 2.3116-0.59571 3.2539 0.35155 0.16124 0.68324 0.30736 0.98829 0.44532 2.0345 0.92001 4.2074 1.8087 6.5859 2.7109 1.7998 0.70912 4.1003 1.5785 6.832 2.2188 9.1592 2.2785 19.889 4.5857 32.086 6.9824 0.26638 0.0525 0.64012 0.12612 0.94336 0.18554 2e-3 0.0983 7e-3 0.19729 8e-3 0.29492 1.1417 0.2332 2.2164 0.41775 3.2168 0.57422 0.24816 0.0392 0.49448 0.0699 0.74219 0.10743-5.8417 0.70504-14.511 2.0494-25.865 3.5762-13.087 1.7448-29.565 3.7761-48.746 5.2207-15.6 1.1692-33.751 2.0468-52.369 1.2656-14.401-0.65023-29.999-1.9973-44.186-6.6016-4.2748-1.6985-8.0442-3.0526-9.0976-5.1465-0.83781-0.70685-1.0467-2.6825-0.92578-4.6914 0.21611-3.0913 1.8825-6.6438 3.8906-10.803 2.497-4.8732 5.6603-9.6791 9.1094-14.762 1.7446-2.5485 3.5521-5.1058 5.4062-7.7227 5.8574-8.2668 11.757-16.545 16.91-25.865 2.9191-5.162 5.5756-11.045 7.082-17.789 1.4377-5.8262 1.0506-12.605-1.9297-19.264-1.9889-3.8848-4.7292-7.0361-7.8926-9.3691-3.5145-2.5697-7.1666-4.2863-10.67-5.3652-6.745-2.0811-13.387-2.816-19.58-2.8633zm202.55 114.47c0.0122 3e-3 0.0253 9e-3 0.0391 0.0195-0.026 0.16098-0.10123 0.33864-0.21094 0.52929 0.0387-0.3878 0.0845-0.57098 0.17188-0.54882zm1.6855 6.6172c0.26468-2e-3 0.37325 0.01 0.14649 0.0957-0.0498-0.0293-0.0985-0.0623-0.14649-0.0957z"/>
 </g>
</svg>
