<?xml version="1.0" encoding="UTF-8"?>
<!-- Created with Inkscape (http://www.inkscape.org/) -->
<svg width="67.098mm" height="131.82mm" version="1.1" viewBox="0 0 67.098 131.82" xmlns="http://www.w3.org/2000/svg">
 <g transform="translate(144.92 -59.393)">
  <path transform="scale(.26458)" d="m-354.15 224.48c-6.7098 0.77909-12.274 3.9753-15.775 8.7266-1.4432 1.962-2.6538 3.9488-3.6758 5.9258-1.8427 3.5649-3.0265 7.0125-3.8516 10.074-2.1851 7.3044-3.5714 14.512-4.6797 20.846-5.9887 33.852-8.7209 57.959-4.5781 59.174s14.27-22.073 22.881-55.184c1.6035-6.1212 3.2686-12.921 5.248-18.93 0.12087-0.33329 0.22664-0.62958 0.34375-0.95703 1.741 5.0679 4.2145 12.567 6.0684 22.508 1.4317 7.6341 2.251 16.744 1.3438 26.826-1.3631 15.974-7.0365 32.817-17.5 51.689-9.8041 17.56-22.205 33.99-37.574 52.518-15.536 18.681-29.967 34.39-47.791 54.689-3.0622 3.4842-6.1458 7.0143-9.2266 10.582-13.692 15.856-26.364 31.33-37.961 47.496-15.005 20.87-26.992 41.46-35.322 62.924-9.553 24.59-12.666 48.039-11.168 68.621 3.7392 48.621 25.722 71.945 28.035 70.648s-14.583-27.264-14.357-71.168c0.0104-18.627 4.1101-39.377 13.645-61.502 8.3935-19.464 20.129-38.216 34.836-58.1 11.402-15.38 23.797-30.237 37.342-45.926 3.039-3.5201 6.0911-7.0301 9.1172-10.504 17.187-19.712 32.427-36.875 47.48-55.898 15.277-19.259 27.831-37.395 37.461-56.736 10.472-20.883 15.397-40.678 15.441-58.822-0.0176-11.545-2.0834-21.588-4.8027-29.709-4.4156-13.141-9.6769-21.301-13.197-25.146 0.16325-0.38953 0.32669-0.76745 0.49414-1.1211 0.51188-1.0811 1.0522-1.9942 1.6719-2.7109 0.78626-0.81402 1.4672-1.5874 1.502-1.3106 1.313-0.62556 4.2076 0.86312 7.8613 2.2676 12.544 5.8814 26.857 16.823 34.191 21.812 8.8114 5.994 14.634 8.9179 16.17 7.291 1.427-1.5118-1.5286-7.3481-8.1777-15.82-6.1997-7.8995-17.594-20.521-33.328-29.838-4.0718-2.7273-10.149-5.289-18.166-5.2363z"/>
 </g>
</svg>
