<svg width="649" height="810" viewBox="0 0 649 810" fill="none" xmlns="http://www.w3.org/2000/svg">
<path d="M1 544.5V282.5C1 268.693 12.1929 257.5 26 257.5H410.244C431.073 257.5 442.768 281.478 429.944 297.891L381.507 359.891C376.769 365.956 369.502 369.5 361.806 369.5H174.5C160.693 369.5 149.5 380.693 149.5 394.5V544.5C149.5 558.307 138.307 569.5 124.5 569.5H26C12.1929 569.5 1 558.307 1 544.5Z" fill="#60A5FA"/>
<path d="M1 102V25C1 11.1929 12.1929 0 26 0H436.5C450.307 0 461.5 11.1929 461.5 25V102C461.5 115.807 450.307 127 436.5 127H26C12.1929 127 1 115.807 1 102Z" fill="#60A5FA"/>
<path d="M82.6255 475.896L54.7824 458.262C52.9315 457.09 50.9756 456.092 48.94 455.282C25.72 446.039 0.5 463.145 0.5 488.137V509.5V556.5V566.5C0.5 568.709 2.29086 570.5 4.5 570.5H39.7103C42.5619 570.5 45.4054 570.805 48.1922 571.41L86.5401 579.73C93.1518 581.165 98.7536 585.526 101.766 591.583L113.496 615.167C121.067 630.39 144 625.001 144 608V596.5V588.933C144 584.369 145.025 579.864 147 575.75C148.975 571.636 150 567.131 150 562.567V484.531C150 483.181 149.847 481.836 149.543 480.521C146.812 468.686 133.306 462.984 122.92 469.282L111.549 476.178C102.636 481.582 91.4314 481.473 82.6255 475.896Z" fill="#60A5FA"/>
<path d="M188 674.5V412.5C188 398.693 199.193 387.5 213 387.5H597.244C618.073 387.5 629.768 411.478 616.944 427.891L568.507 489.891C563.769 495.956 556.502 499.5 548.806 499.5H361.5C347.693 499.5 336.5 510.693 336.5 524.5V674.5C336.5 688.307 325.307 699.5 311.5 699.5H213C199.193 699.5 188 688.307 188 674.5Z" fill="#8A898A"/>
<path d="M188 232V155C188 141.193 199.193 130 213 130H623.5C637.307 130 648.5 141.193 648.5 155V232C648.5 245.807 637.307 257 623.5 257H213C199.193 257 188 245.807 188 232Z" fill="#8A898A"/>
<path d="M270.126 608.896L242.282 591.262C240.431 590.09 238.476 589.092 236.44 588.282C213.22 579.039 188 596.145 188 621.137V642.5V689.5V699.5C188 701.709 189.791 703.5 192 703.5H227.21C230.062 703.5 232.905 703.805 235.692 704.41L274.04 712.73C280.652 714.165 286.254 718.526 289.266 724.583L300.996 748.167C308.567 763.39 331.5 758.001 331.5 741V729.5V721.933C331.5 717.369 332.525 712.864 334.5 708.75C336.475 704.636 337.5 700.131 337.5 695.567V617.531C337.5 616.181 337.347 614.836 337.043 613.521C334.312 601.686 320.806 595.984 310.42 602.282L299.049 609.178C290.136 614.582 278.931 614.473 270.126 608.896Z" fill="#60A5FA"/>
<path d="M190.76 142.235L192.5 139.5L197.121 134.038C197.705 133.349 198.204 132.592 198.608 131.783L198.862 131.277C200.761 127.478 204.763 125.197 209 125.5H340H396.416C402.373 125.5 408.232 123.979 413.438 121.082L452.185 99.5151C455.466 97.689 459.598 99.2947 460.786 102.857C461.246 104.238 461.188 105.74 460.622 107.082L448.821 135.055C448.275 136.347 447.882 137.699 447.648 139.082L446.041 148.578C444.452 157.965 433.364 162.191 425.93 156.244C422.287 153.33 417.323 152.69 413.06 154.584L392.857 163.564C384.31 167.362 374.598 167.582 365.888 164.174L348.952 157.546C339.172 153.72 328.191 154.486 319.038 159.635L312.333 163.407C305.325 167.348 297.174 168.757 289.25 167.397L259.142 162.226C254.431 161.417 249.604 161.582 244.958 162.71L219.855 168.807C217.958 169.267 216.014 169.5 214.062 169.5H205.727C194.503 169.5 186.1 159.209 188.345 148.212C188.778 146.089 189.596 144.063 190.76 142.235Z" fill="#60A5FA"/>
<path d="M297.053 333.716C296.695 333.71 296.337 333.642 295.979 333.511C295.621 333.381 295.295 333.16 294.999 332.851C294.704 332.538 294.466 332.116 294.287 331.585C294.108 331.051 294.019 330.381 294.019 329.574C294.019 328.801 294.091 328.116 294.236 327.52C294.381 326.92 294.591 326.416 294.867 326.007C295.143 325.595 295.475 325.283 295.864 325.069C296.256 324.856 296.698 324.75 297.189 324.75C297.678 324.75 298.113 324.848 298.493 325.044C298.877 325.237 299.189 325.507 299.431 325.854C299.672 326.2 299.829 326.599 299.9 327.051H298.86C298.763 326.659 298.576 326.334 298.297 326.075C298.019 325.817 297.65 325.687 297.189 325.687C296.513 325.687 295.981 325.981 295.591 326.569C295.205 327.158 295.01 327.983 295.008 329.045H295.076C295.235 328.804 295.424 328.598 295.643 328.427C295.864 328.254 296.108 328.121 296.376 328.027C296.643 327.933 296.925 327.886 297.224 327.886C297.724 327.886 298.181 328.011 298.596 328.261C299.01 328.508 299.343 328.851 299.593 329.288C299.843 329.723 299.968 330.221 299.968 330.784C299.968 331.324 299.847 331.818 299.606 332.267C299.364 332.713 299.025 333.068 298.587 333.332C298.153 333.594 297.641 333.721 297.053 333.716ZM297.053 332.778C297.411 332.778 297.732 332.689 298.016 332.51C298.303 332.331 298.529 332.091 298.694 331.79C298.861 331.488 298.945 331.153 298.945 330.784C298.945 330.423 298.864 330.095 298.702 329.8C298.543 329.501 298.323 329.264 298.042 329.088C297.763 328.912 297.445 328.824 297.087 328.824C296.817 328.824 296.566 328.878 296.333 328.986C296.1 329.091 295.895 329.236 295.719 329.42C295.546 329.605 295.41 329.817 295.31 330.055C295.211 330.291 295.161 330.54 295.161 330.801C295.161 331.148 295.242 331.471 295.404 331.773C295.569 332.074 295.793 332.317 296.077 332.501C296.364 332.686 296.689 332.778 297.053 332.778ZM304.49 333.716C303.848 333.716 303.301 333.541 302.85 333.192C302.398 332.839 302.053 332.329 301.814 331.662C301.575 330.991 301.456 330.182 301.456 329.233C301.456 328.29 301.575 327.484 301.814 326.817C302.056 326.146 302.402 325.635 302.854 325.283C303.308 324.927 303.854 324.75 304.49 324.75C305.127 324.75 305.671 324.927 306.122 325.283C306.577 325.635 306.923 326.146 307.162 326.817C307.404 327.484 307.524 328.29 307.524 329.233C307.524 330.182 307.405 330.991 307.166 331.662C306.928 332.329 306.583 332.839 306.131 333.192C305.679 333.541 305.132 333.716 304.49 333.716ZM304.49 332.778C305.127 332.778 305.621 332.471 305.973 331.858C306.325 331.244 306.502 330.369 306.502 329.233C306.502 328.477 306.421 327.834 306.259 327.302C306.1 326.771 305.869 326.366 305.568 326.088C305.27 325.81 304.911 325.67 304.49 325.67C303.86 325.67 303.367 325.981 303.012 326.604C302.656 327.223 302.479 328.099 302.479 329.233C302.479 329.988 302.558 330.631 302.718 331.159C302.877 331.687 303.105 332.089 303.404 332.365C303.705 332.64 304.067 332.778 304.49 332.778ZM309.655 333.596H308.547L311.752 324.869H312.843L316.047 333.596H314.939L312.331 326.25H312.263L309.655 333.596ZM310.064 330.187H314.53V331.125H310.064V330.187ZM319.98 333.716C319.48 333.716 319.03 333.616 318.629 333.417C318.229 333.219 317.908 332.946 317.666 332.599C317.425 332.253 317.293 331.858 317.27 331.415H318.293C318.333 331.81 318.512 332.136 318.83 332.395C319.151 332.65 319.534 332.778 319.98 332.778C320.338 332.778 320.656 332.694 320.935 332.527C321.216 332.359 321.436 332.129 321.595 331.836C321.757 331.541 321.838 331.207 321.838 330.835C321.838 330.454 321.754 330.115 321.587 329.817C321.422 329.515 321.195 329.278 320.905 329.105C320.615 328.932 320.284 328.844 319.912 328.841C319.645 328.838 319.371 328.879 319.09 328.964C318.808 329.047 318.577 329.153 318.395 329.284L317.406 329.165L317.935 324.869H322.469V325.807H318.821L318.514 328.381H318.566C318.744 328.238 318.969 328.121 319.239 328.027C319.509 327.933 319.79 327.886 320.083 327.886C320.617 327.886 321.093 328.014 321.51 328.27C321.931 328.523 322.26 328.869 322.499 329.31C322.74 329.75 322.861 330.253 322.861 330.818C322.861 331.375 322.736 331.872 322.486 332.31C322.239 332.744 321.898 333.088 321.463 333.341C321.029 333.591 320.534 333.716 319.98 333.716ZM324.707 333.596V324.869H329.94V325.807H325.764V328.756H329.548V329.693H325.764V333.596H324.707ZM331.018 333.596H329.91L333.115 324.869H334.206L337.41 333.596H336.302L333.694 326.25H333.626L331.018 333.596ZM331.427 330.187H335.893V331.125H331.427V330.187Z" fill="#60A5FA"/>
</svg>
